<svg width="81" height="33" viewBox="0 0 81 33" fill="none" xmlns="http://www.w3.org/2000/svg">
<path d="M77.114 13.6855C74.4962 12.0392 66.0525 9.93412 54.2032 9.93412L47.9439 2.47796C46.6238 0.905375 44.6964 0.00012207 42.6679 0.00012207H23.932C21.9413 0.00012207 20.0164 0.72725 18.505 2.05L11.1188 8.51491L3.24062 9.66405C2.12185 9.82722 1.21137 10.6658 0.937262 11.7853L0.000488281 15.6105L20.848 25.5443H79.2201V17.5218C79.2197 15.9529 78.4221 14.5085 77.114 13.6855Z" fill="#01AB14"/>
<path d="M79.2202 18.4487C79.2202 15.6104 75.0508 12.7722 55.5935 12.7722H1.39046C0.622939 12.7722 0.000732422 13.4077 0.000732422 14.1912V22.706L26.4075 26.9633H79.2203V18.4487H79.2202Z" fill="#006E0D"/>
<path d="M79.2202 24.1253H14.0508L1.69172 21.321C0.949387 21.1546 0.200125 21.6321 0.0330801 22.3985C-0.132548 23.1636 0.339933 23.9216 1.08904 24.0914L13.5972 26.9297C13.6963 26.9525 13.7967 26.9636 13.8984 26.9636H79.2197C79.9879 26.9636 80.6096 26.3281 80.6096 25.5445C80.6098 24.7608 79.9884 24.1253 79.2202 24.1253Z" fill="#01AB14"/>
<path d="M66.7112 31.2205C70.549 31.2205 73.6602 28.0437 73.6602 24.1249C73.6602 20.2061 70.549 17.0292 66.7112 17.0292C62.8734 17.0292 59.7622 20.2061 59.7622 24.1249C59.7622 28.0437 62.8734 31.2205 66.7112 31.2205Z" fill="#EDEDEE"/>
<path d="M66.7119 32.64C62.1135 32.64 58.373 28.8206 58.373 24.1252C58.373 19.4299 62.1135 15.6105 66.7119 15.6105C71.3103 15.6105 75.0508 19.4299 75.0508 24.1252C75.0508 28.8206 71.3103 32.64 66.7119 32.64ZM66.7119 18.4487C63.6461 18.4487 61.1527 20.9947 61.1527 24.1252C61.1527 27.2558 63.6461 29.8018 66.7119 29.8018C69.7777 29.8018 72.2711 27.2559 72.2711 24.1252C72.2711 20.9947 69.7779 18.4487 66.7119 18.4487Z" fill="#504B5A"/>
<path d="M66.7113 26.9632C68.2464 26.9632 69.4909 25.6924 69.4909 24.1249C69.4909 22.5574 68.2464 21.2867 66.7113 21.2867C65.1761 21.2867 63.9316 22.5574 63.9316 24.1249C63.9316 25.6924 65.1761 26.9632 66.7113 26.9632Z" fill="#DCDBDE"/>
<path d="M13.8982 31.2205C17.736 31.2205 20.8472 28.0437 20.8472 24.1249C20.8472 20.2061 17.736 17.0292 13.8982 17.0292C10.0604 17.0292 6.94922 20.2061 6.94922 24.1249C6.94922 28.0437 10.0604 31.2205 13.8982 31.2205Z" fill="#EDEDEE"/>
<path d="M13.8989 32.64C9.30054 32.64 5.56006 28.8206 5.56006 24.1252C5.56006 19.4299 9.30054 15.6105 13.8989 15.6105C18.4973 15.6105 22.2378 19.4299 22.2378 24.1252C22.2376 28.8206 18.4971 32.64 13.8989 32.64ZM13.8989 18.4487C10.8331 18.4487 8.33968 20.9947 8.33968 24.1252C8.33968 27.2558 10.8331 29.8018 13.8989 29.8018C16.9648 29.8018 19.4582 27.2559 19.4582 24.1252C19.4582 20.9947 16.9648 18.4487 13.8989 18.4487Z" fill="#504B5A"/>
<path d="M13.8983 26.9632C15.4334 26.9632 16.6779 25.6924 16.6779 24.1249C16.6779 22.5574 15.4334 21.2867 13.8983 21.2867C12.3631 21.2867 11.1187 22.5574 11.1187 24.1249C11.1187 25.6924 12.3631 26.9632 13.8983 26.9632Z" fill="#DCDBDE"/>
<path d="M55.5935 21.287H26.4076C25.64 21.287 25.0178 20.6515 25.0178 19.8679C25.0178 19.0842 25.6402 18.4489 26.4076 18.4489H55.5935C56.361 18.4489 56.9832 19.0842 56.9832 19.8679C56.9834 20.6518 56.361 21.287 55.5935 21.287Z" fill="#01AB14"/>
<path d="M79.2205 21.287H77.8308C77.0633 21.287 76.4409 20.6515 76.4409 19.8679C76.4409 19.0842 77.0633 18.4489 77.8308 18.4489H79.2205C79.988 18.4489 80.6102 19.0842 80.6102 19.8679C80.6102 20.6518 79.988 21.287 79.2205 21.287Z" fill="#01AB14"/>
<path d="M11.1194 8.51483L18.5056 2.04989C20.017 0.727133 21.9419 0 23.9326 0H42.6685C44.6971 0 46.6242 0.905098 47.9445 2.47784L54.2037 9.93404H21.2983C20.0734 9.93404 18.8507 9.83067 17.6423 9.62506L11.1194 8.51483Z" fill="#01AB14"/>
<path d="M41.1386 2.44042C40.6105 1.79335 39.8282 1.41925 39.0032 1.41925H26.168C25.4308 1.41925 24.7238 1.71827 24.2026 2.25056L20.0333 6.5079C19.6647 6.88424 19.4575 7.39467 19.4575 7.92696C19.4575 9.03526 20.3375 9.93393 21.423 9.93393H45.7708C46.36 9.93393 46.6818 9.23219 46.3047 8.77L41.1386 2.44042Z" fill="#625D6B"/>
<path d="M29.1868 9.93393H25.0173L27.797 1.41925H30.5766L29.1868 9.93393Z" fill="#504B5A"/>
<path d="M77.7283 14.1914H76.4403C75.6727 14.1914 75.0505 14.8267 75.0505 15.6104C75.0505 16.3941 75.6729 17.0295 76.4403 17.0295H79.1578C79.0372 15.9258 78.5339 14.9274 77.7283 14.1914Z" fill="#EDEDEE"/>
<path d="M47.9444 2.47788C47.6114 2.08111 47.2391 1.72727 46.8366 1.41925H44.5685C43.9794 1.41925 43.6576 2.12082 44.0346 2.58318L49.2008 8.91306C49.7288 9.56013 50.5112 9.93423 51.336 9.93423H54.2035L47.9444 2.47788Z" fill="#625D6B"/>
<path d="M0.000732422 14.1914V15.6105H2.78036C3.54788 15.6105 4.17009 14.9751 4.17009 14.1914C4.17009 13.4077 3.54773 12.7723 2.78036 12.7723H1.39047C0.622783 12.7722 0.000732422 13.4077 0.000732422 14.1914Z" fill="#01AB14"/>
</svg>
