<svg width="59" height="61" viewBox="0 0 59 61" fill="none" xmlns="http://www.w3.org/2000/svg">
<g clip-path="url(#clip0)">
<path d="M29.5017 4.77673C15.7602 4.77673 4.62207 16.2924 4.62207 30.4999C4.62207 40.7367 10.4207 49.5494 18.7932 53.6896L19.5719 38.1323C19.5719 38.1323 18.1072 37.6353 17.7865 37.4735C14.6797 36.0585 12.4228 31.8924 12.4228 26.4854C12.4228 20.5852 16.8485 15.5031 21.1274 15.4612C21.1328 15.4612 21.1328 15.4612 21.1364 15.4612C21.1382 15.4612 21.1418 15.4612 21.1435 15.4612C25.4233 15.503 29.8492 20.5851 29.8492 26.4854C29.8492 31.8924 27.5894 36.0568 24.489 37.4735C24.4646 37.4845 22.6893 38.151 22.6893 38.151L23.559 55.4488C25.4674 55.9344 27.4517 56.2195 29.5052 56.2195C32.2745 56.2195 34.9266 55.7318 37.4149 54.8698L38.1856 39.4541C36.1547 38.9924 34.4225 37.6556 33.3368 35.9786C31.9918 33.8955 34.3721 15.4594 34.3721 15.4594H35.9206V32.7599H37.4583V15.4613H39.14V32.7637H40.6705V15.4613H42.4153V32.7637H43.9511V15.4613H45.1394C45.1394 15.4613 47.5197 33.8975 46.173 35.9805C45.098 37.6411 43.382 38.9739 41.3764 39.4468C41.3405 39.4599 41.3079 39.4727 41.3079 39.4727L41.9777 52.7329C49.3888 48.278 54.3834 40.0016 54.3834 30.5001C54.3797 16.2925 43.2416 4.77673 29.5017 4.77673Z" fill="#01AB14"/>
<path d="M16.0644 23.8699C16.1535 23.4948 16.2733 23.1383 16.2787 23.1319C16.3175 22.9914 16.2454 22.848 16.0977 22.7568C15.9573 22.6787 15.7862 22.7187 15.7071 22.8443C15.7071 22.8443 15.5369 23.1246 15.2902 23.5387C15.0895 23.8952 14.7924 24.4648 14.5897 25.1741C14.4141 25.7958 14.2045 26.6224 14.1099 27.5475C14.0695 28.0334 14.0604 28.4718 14.0748 28.9232C14.1099 29.4378 14.1854 29.8781 14.3295 30.3817C14.8183 31.8179 15.1947 33.2086 16.5532 34.5804C16.9826 35.0366 17.4238 35.3474 17.7424 35.5764L17.8549 35.6583C17.9234 35.7049 17.9891 35.7478 18.0539 35.7869C18.3214 35.9321 18.5004 35.9842 18.5329 35.9915C18.666 36.0287 18.803 35.9617 18.8596 35.85C18.9128 35.7328 18.874 35.5857 18.7634 35.4928C18.7634 35.4928 18.6084 35.3532 18.4096 35.0925C18.2737 34.9342 18.126 34.7053 17.9541 34.4467C17.8326 34.2642 17.6894 34.0575 17.5562 33.8564C16.8944 32.8121 16.5129 31.3545 15.9852 29.8614C15.8817 29.5375 15.7971 29.1177 15.7655 28.7612C15.7233 28.3497 15.7035 27.9533 15.7035 27.5856C15.6882 26.7312 15.725 25.9977 15.7971 25.4029C15.8798 24.7319 15.9446 24.2283 16.0644 23.8699Z" fill="#01AB14"/>
<path d="M29.5018 0C13.2367 0 0 13.6825 0 30.4999C0 47.3136 13.2367 61 29.5018 61C45.7661 61 59.0001 47.3136 59.0001 30.4999C59 13.6825 45.7661 0 29.5018 0ZM29.5018 58.7252C14.4475 58.7252 2.19932 46.0628 2.19932 30.4999C2.19932 14.9353 14.4475 2.27195 29.5018 2.27195C44.5544 2.27195 56.8035 14.9353 56.8035 30.4999C56.8033 46.0628 44.5542 58.7252 29.5018 58.7252Z" fill="#01AB14"/>
</g>
<defs>
<clipPath id="clip0">
<rect width="59" height="61" fill="white"/>
</clipPath>
</defs>
</svg>
