<svg width="191" height="41" viewBox="0 0 191 41" fill="none" xmlns="http://www.w3.org/2000/svg">
<path d="M62.736 5.56H60V33.316H62.736V5.56ZM68.5359 5.56H65.8359V10.348H68.5359V5.56ZM68.5359 12.796H65.8359V33.316H68.5359V12.796ZM89.6744 21.616C89.6744 18.952 88.8104 16.756 87.0824 14.992C85.3544 13.228 83.1944 12.328 80.6024 12.328C77.9744 12.328 75.8144 13.228 74.0864 14.992C72.3584 16.756 71.4944 18.952 71.4944 21.616V33.316H74.2664V21.328C74.2664 19.6 74.8784 18.124 76.1384 16.864C77.3984 15.604 78.9104 14.992 80.6024 14.992C82.2944 14.992 83.7344 15.604 84.9944 16.864C86.2544 18.124 86.9024 19.6 86.9024 21.328V33.316H89.6744V21.616ZM100.511 23.128L108.323 12.796H104.903L95.3987 25.108V5.56H92.5547V33.316H95.5067V29.392L98.7827 25.252L105.443 33.316H109.007L100.511 23.128ZM132.037 23.164V23.02C132.145 20.176 131.173 17.692 129.157 15.604C127.141 13.48 124.693 12.4 121.813 12.292C118.825 12.184 116.269 13.192 114.145 15.352C112.021 17.476 110.941 20.068 110.941 23.056C110.941 25.936 111.949 28.42 113.929 30.508C115.909 32.596 118.321 33.676 121.165 33.784C124.405 33.892 127.141 32.668 129.373 30.112V33.316H132.037V23.164ZM116.053 17.26C117.601 15.712 119.437 14.956 121.633 14.956C123.721 14.956 125.521 15.712 126.997 17.26C128.473 18.808 129.265 20.644 129.301 22.804C129.337 25.072 128.581 27.052 126.961 28.744C125.377 30.4 123.469 31.192 121.201 31.084C119.113 30.976 117.313 30.148 115.837 28.528C114.361 26.908 113.677 25 113.713 22.84C113.749 20.644 114.505 18.808 116.053 17.26ZM137.582 21.04C137.582 19.708 137.798 18.664 138.266 17.872C138.554 17.404 139.094 16.828 139.886 16.18C140.678 15.532 141.722 15.172 142.982 15.136V12.4C141.902 12.364 140.858 12.616 139.814 13.156C138.698 13.768 137.834 14.596 137.258 15.712V12.796H134.702V33.316H137.582V21.04ZM166.173 23.164V23.02C166.281 20.176 165.309 17.692 163.293 15.604C161.277 13.48 158.829 12.4 155.949 12.292C152.961 12.184 150.405 13.192 148.281 15.352C146.157 17.476 145.077 20.068 145.077 23.056C145.077 25.936 146.085 28.42 148.065 30.508C150.045 32.596 152.457 33.676 155.301 33.784C158.541 33.892 161.277 32.668 163.509 30.112V33.316H166.173V23.164ZM150.189 17.26C151.737 15.712 153.573 14.956 155.769 14.956C157.857 14.956 159.657 15.712 161.133 17.26C162.609 18.808 163.401 20.644 163.437 22.804C163.473 25.072 162.717 27.052 161.097 28.744C159.513 30.4 157.605 31.192 155.337 31.084C153.249 30.976 151.449 30.148 149.973 28.528C148.497 26.908 147.813 25 147.849 22.84C147.885 20.644 148.641 18.808 150.189 17.26ZM187.163 21.616C187.163 18.952 186.299 16.756 184.571 14.992C182.843 13.228 180.683 12.328 178.091 12.328C175.463 12.328 173.303 13.228 171.575 14.992C169.847 16.756 168.983 18.952 168.983 21.616V33.316H171.755V21.328C171.755 19.6 172.367 18.124 173.627 16.864C174.887 15.604 176.399 14.992 178.091 14.992C179.783 14.992 181.223 15.604 182.483 16.864C183.743 18.124 184.391 19.6 184.391 21.328V33.316H187.163V21.616Z" fill="#01AB14"/>
<g clip-path="url(#clip0)">
<path d="M32.2856 20.074C35.7733 16.5862 35.6032 10.7612 31.9056 7.06358C28.2081 3.36593 22.3832 3.19581 18.8955 6.68361C15.4078 10.1714 15.5779 15.9964 19.2755 19.694C22.9731 23.3917 28.7979 23.5618 32.2856 20.074Z" fill="url(#paint0_linear)"/>
<path fill-rule="evenodd" clip-rule="evenodd" d="M13.7279 25.174C13.7446 25.1911 13.7608 25.2083 13.7756 25.225C19.4209 30.8709 28.3146 31.1307 33.6399 25.8053C36.6008 22.8443 37.8357 18.78 37.3761 14.7843C37.3598 14.616 37.4075 14.513 37.4657 14.4539C37.5 14.4215 37.5404 14.3962 37.5846 14.3794C37.6287 14.3626 37.6757 14.3546 37.7229 14.356C37.7701 14.3574 37.8166 14.368 37.8596 14.3874C37.9027 14.4067 37.9416 14.4343 37.974 14.4687C38.0216 14.513 38.0669 14.6289 38.0874 14.6952C40.1553 21.3314 38.7182 28.6566 33.6876 33.6874C26.9709 40.4042 16.1658 40.716 8.37018 34.836L8.36017 34.8303C7.61542 34.3401 6.84921 33.6383 6.15594 32.9168L6.12162 32.8835C6.02053 32.7817 5.92375 32.678 5.83125 32.5721C5.04804 31.7194 4.31295 30.8237 3.6294 29.8891C-1.68782 22.1586 -1.18957 11.8195 5.31535 5.31492C10.357 0.273158 17.7025 -1.15727 24.35 0.92543C24.4256 0.94334 24.4953 0.980269 24.5526 1.03271C24.6215 1.09785 24.6617 1.18763 24.6645 1.28237C24.6672 1.37711 24.6323 1.46908 24.5674 1.53813C24.5279 1.57693 24.4794 1.6055 24.4263 1.62136C24.3733 1.63723 24.3171 1.63992 24.2627 1.6292C20.2529 1.15668 16.1696 2.3878 13.1977 5.35974C10.0561 8.50191 8.8589 12.8852 9.56456 17.1116C9.60211 17.234 9.62484 17.3605 9.63226 17.4883C9.88265 18.7735 10.3032 20.0195 10.8829 21.1936C12.0897 23.4012 13.7279 25.174 13.7279 25.174Z" fill="url(#paint1_linear)"/>
</g>
<defs>
<linearGradient id="paint0_linear" x1="28.9342" y1="17.6587" x2="22.247" y2="9.09966" gradientUnits="userSpaceOnUse">
<stop stop-color="#01AB14"/>
<stop offset="1" stop-color="#006E0D"/>
</linearGradient>
<linearGradient id="paint1_linear" x1="24004.6" y1="27530.5" x2="15875.6" y2="17491.7" gradientUnits="userSpaceOnUse">
<stop stop-color="#01AB14"/>
<stop offset="1" stop-color="#006E0D"/>
</linearGradient>
<clipPath id="clip0">
<rect width="39" height="39" fill="white"/>
</clipPath>
</defs>
</svg>
