<svg width="80" height="65" viewBox="0 0 80 65" fill="none" xmlns="http://www.w3.org/2000/svg">
<path d="M54.0032 4.13538H56.7032V12.4064H54.0032V4.13538Z" fill="#006E0D"/>
<path d="M54.0005 49.6265V37.3564C54.0005 37.2657 53.9917 37.1751 53.9742 37.0861L51.5342 24.6281C51.4696 24.2987 51.5252 23.9565 51.6903 23.6659C51.8555 23.3753 52.1189 23.1563 52.431 23.05L55.3505 22.0563H58.0505L64.8005 35.8414L56.7005 49.6265H54.0005Z" fill="#006E0D"/>
<path d="M31.0501 35.8412L36.1651 38.4527C37.0621 38.9107 37.8165 39.6147 38.3437 40.4857C38.8709 41.3568 39.1502 42.3606 39.1502 43.3846V51.0049H32.4001L24.3 42.7338V35.8412H31.0501Z" fill="#01AB14"/>
<path d="M10.8004 63.4112C16.0196 63.4112 20.2505 59.0909 20.2505 53.7616C20.2505 48.4323 16.0196 44.1121 10.8004 44.1121C5.58129 44.1121 1.35034 48.4323 1.35034 53.7616C1.35034 59.0909 5.58129 63.4112 10.8004 63.4112Z" fill="#EFE8E0"/>
<path d="M10.8007 64.79C8.66465 64.79 6.57657 64.1432 4.8005 62.9314C3.02443 61.7196 1.64016 59.9973 0.822724 57.9822C0.00528983 55.9671 -0.208588 53.7497 0.208136 51.6104C0.62486 49.4712 1.65347 47.5062 3.16389 45.9639C4.67431 44.4216 6.5987 43.3713 8.69372 42.9457C10.7887 42.5202 12.9603 42.7386 14.9337 43.5733C16.9072 44.408 18.5939 45.8215 19.7807 47.635C20.9674 49.4486 21.6008 51.5808 21.6008 53.7619C21.5975 56.6857 20.4586 59.4888 18.4339 61.5563C16.4092 63.6237 13.6641 64.7866 10.8007 64.79ZM10.8007 45.4909C9.19867 45.4909 7.6326 45.9759 6.30055 46.8848C4.9685 47.7936 3.9303 49.0854 3.31722 50.5967C2.70415 52.1081 2.54374 53.7711 2.85628 55.3755C3.16882 56.9799 3.94028 58.4537 5.0731 59.6104C6.20591 60.7672 7.64921 61.5549 9.22047 61.8741C10.7917 62.1932 12.4204 62.0294 13.9005 61.4034C15.3806 60.7774 16.6456 59.7172 17.5357 58.3571C18.4257 56.9969 18.9008 55.3978 18.9008 53.7619C18.8984 51.569 18.0443 49.4666 16.5257 47.916C15.0072 46.3654 12.9483 45.4932 10.8007 45.4909Z" fill="#544D4C"/>
<path d="M32.4006 48.2477V55.1403H11.0775C10.646 55.1403 10.2321 54.9652 9.92701 54.6536C9.62187 54.3421 9.45044 53.9195 9.45044 53.4788C9.45044 53.1537 9.54388 52.8356 9.71917 52.5642C9.89447 52.2927 10.1439 52.0798 10.4366 51.9517L22.0505 46.8692H27.0006L32.4006 48.2477Z" fill="#01AB14"/>
<path d="M62.2377 46.8687C60.9993 48.109 60.1192 49.6735 59.694 51.3907C59.2687 53.108 59.3146 54.9116 59.8267 56.6039C60.3389 58.2963 61.2974 59.812 62.5973 60.9849C63.8971 62.1578 65.4882 62.9426 67.1959 63.2534C68.9037 63.5641 70.6623 63.3887 72.2789 62.7465C73.8955 62.1043 75.3078 61.0199 76.3609 59.6124C77.414 58.2049 78.0672 56.5284 78.249 54.7669C78.4308 53.0054 78.1341 51.2267 77.3915 49.626" fill="#EFE8E0"/>
<path d="M68.8532 64.79C66.7078 64.7901 64.6109 64.1377 62.8301 62.9161C61.0492 61.6944 59.6651 59.9587 58.8542 57.9305C58.0433 55.9023 57.8424 53.6734 58.2771 51.5281C58.7118 49.3829 59.7624 47.4184 61.295 45.8853L63.1855 47.8535C62.1242 48.9165 61.3699 50.2574 61.0054 51.7292C60.6409 53.201 60.6803 54.7468 61.1192 56.1973C61.5581 57.6477 62.3796 58.9468 63.4936 59.9521C64.6077 60.9573 65.9712 61.6301 67.4349 61.8964C68.8985 62.1628 70.4058 62.0126 71.7914 61.4622C73.1769 60.9119 74.3874 59.9826 75.29 58.7764C76.1927 57.5701 76.7527 56.1333 76.9086 54.6236C77.0646 53.1139 76.8104 51.5894 76.1741 50.2174L78.6131 49.0354C79.3018 50.5116 79.6572 52.1268 79.6533 53.7619C79.65 56.6857 78.5111 59.4888 76.4864 61.5563C74.4617 63.6237 71.7166 64.7867 68.8532 64.79Z" fill="#544D4C"/>
<path d="M63.0012 46.8695L60.3011 38.5984H67.0512L69.7512 46.8695H63.0012Z" fill="#006E0D"/>
<path d="M70.6504 48.2476L72.1776 52.9258C72.2725 53.2166 72.3104 53.5237 72.2891 53.8295C72.2678 54.1353 72.1878 54.4338 72.0535 54.708C71.9192 54.9822 71.7334 55.2267 71.5066 55.4276C71.2798 55.6285 71.0164 55.7818 70.7316 55.8787C70.2095 56.0564 69.6422 56.0359 69.1337 55.8208C68.6253 55.6058 68.2099 55.2106 67.9637 54.708L64.8003 48.2476H70.6504Z" fill="#006E0D"/>
<path d="M60.3071 45.4906H67.5008L68.4554 44.5158C68.7086 44.2573 69.0519 44.1121 69.41 44.1121H73.7773C74.0838 44.1121 74.3812 44.2186 74.6206 44.4141L79.3533 48.2802C79.5302 48.4247 79.6686 48.6124 79.7559 48.8258C79.8431 49.0393 79.8763 49.2718 79.8524 49.5019C79.8286 49.7319 79.7484 49.9521 79.6193 50.1422C79.4902 50.3323 79.3163 50.4862 79.1137 50.5896L78.3009 51.0046H66.1508L60.3071 48.0211V45.4906Z" fill="#01AB14"/>
<path d="M52.3296 23.1069C52.3657 23.0909 52.3931 23.0626 52.4311 23.0496L59.4006 20.6775V16.5419C59.4006 15.8178 59.2609 15.1008 58.9895 14.4318C58.7181 13.7628 58.3204 13.1549 57.8189 12.6429C57.3175 12.1309 56.7222 11.7247 56.067 11.4476C55.4119 11.1705 54.7097 11.0279 54.0005 11.0279H52.023C51.8007 11.0279 51.5819 11.0839 51.386 11.191C51.19 11.2981 51.023 11.4529 50.8997 11.6418L48.8272 14.8161C48.6794 15.0425 48.6005 15.3086 48.6005 15.5807V18.7279C48.6005 18.9089 48.6354 19.0882 48.7032 19.2555C48.7711 19.4227 48.8705 19.5747 48.9959 19.7027L52.3296 23.1069Z" fill="#01AB14"/>
<path d="M67.5005 39.9766H66.1505L55.7512 55.9049C55.6279 56.0937 55.4609 56.2486 55.2649 56.3556C55.069 56.4627 54.8502 56.5187 54.6279 56.5187H34.097C33.8695 56.5187 33.6457 56.4601 33.4464 56.3481L7.44942 41.7479C7.23761 41.629 7.06097 41.4541 6.93794 41.2417C6.8149 41.0292 6.75 40.7869 6.75 40.5401V37.2196C6.75 36.854 6.89223 36.5034 7.14541 36.2449C7.39859 35.9863 7.74197 35.8411 8.10001 35.8411H11.475C11.6846 35.8411 11.8913 35.7913 12.0788 35.6956C12.2662 35.5999 12.4293 35.4609 12.5551 35.2897L16.2001 30.3271L36.4503 34.4626L28.3088 41.5883C28.1533 41.7244 28.0302 41.8948 27.9488 42.0867C27.8673 42.2786 27.8297 42.4869 27.8387 42.6958C27.8478 42.9047 27.9033 43.1088 28.001 43.2926C28.0987 43.4764 28.2361 43.6351 28.4027 43.7566L36.0982 49.3694C36.3272 49.5364 36.6015 49.6262 36.8829 49.6262H51.886C52.1192 49.6262 52.3483 49.5646 52.5512 49.4473C52.7541 49.33 52.9237 49.1611 53.0437 48.9569L60.406 36.4274C60.513 36.2452 60.5774 36.0402 60.594 35.8283C60.6107 35.6165 60.5791 35.4036 60.5018 35.2062L55.3504 22.056L59.4005 20.6775L68.5662 32.7107C68.7505 32.9527 68.8505 33.2505 68.8505 33.5571V38.5981C68.8505 38.9637 68.7083 39.3144 68.4551 39.5729C68.202 39.8314 67.8586 39.9766 67.5005 39.9766Z" fill="#01AB14"/>
<path d="M16.2003 30.3272V26.1917H30.7317C30.9413 26.1917 31.148 26.2415 31.3355 26.3372L38.4042 29.9462C38.6285 30.0607 38.8171 30.2366 38.9489 30.4544C39.0807 30.6722 39.1505 30.9231 39.1505 31.1791V32.2322C39.1505 32.4882 39.0807 32.7392 38.9489 32.957C38.8171 33.1747 38.6285 33.3507 38.4042 33.4652L36.4505 34.4627L16.2003 30.3272Z" fill="#006E0D"/>
<path d="M43.2024 15.1638H54.0025V17.9208H43.2024V15.1638Z" fill="black"/>
<path d="M52.4438 0H53.7938C54.5099 0 55.1966 0.290472 55.703 0.807513C56.2093 1.32455 56.4938 2.02581 56.4938 2.75702V4.13553C56.4938 4.50113 56.3516 4.85176 56.0984 5.11028C55.8452 5.36881 55.5018 5.51404 55.1438 5.51404H52.4438C52.0857 5.51404 51.7423 5.36881 51.4892 5.11028C51.236 4.85176 51.0938 4.50113 51.0938 4.13553V1.37851C51.0938 1.01291 51.236 0.662277 51.4892 0.403757C51.7423 0.145236 52.0857 0 52.4438 0Z" fill="#01AB14"/>
<path d="M0 21.2484V25.3395C-9.6838e-08 25.5955 0.0698152 25.8465 0.201623 26.0642C0.333431 26.282 0.522023 26.458 0.746268 26.5725L8.10007 30.327H16.2001V19.2989C16.2001 18.9333 16.0579 18.5827 15.8047 18.3242C15.5516 18.0656 15.2082 17.9204 14.8501 17.9204H3.25922C2.90117 17.9204 2.55779 18.0656 2.30462 18.3242L0.39541 20.2737C0.27005 20.4017 0.170608 20.5536 0.102763 20.7209C0.0349188 20.8881 -3.32637e-08 21.0674 0 21.2484Z" fill="#01AB14"/>
<path d="M16.2002 30.3271L12.5551 35.2898C12.4294 35.461 12.2663 35.6 12.0789 35.6957C11.8914 35.7914 11.6847 35.8412 11.4751 35.8412H8.1001V30.3271H16.2002Z" fill="#3E3C3C"/>
</svg>
